PathFileType	4	(x/y/z)	S01_P20_T21
DataRate	CameraRate	NumFrames	NumMarkers	Units	OrigDataRate	OrigDataStartFrame	OrigNumFrames
240	240	9	51	mm	240	96	381
Frame#	Time	Sternum			R.Acromium			L.Acromium			Top.Head			R.ASIS			L.ASIS			R.PSIS			L.PSIS			R.Great.Tro			L.Great.Tro			R.Iliac.Crest			L.Iliac.Crest			V.Sacral			R.Thigh.Upper.Post			R.Thigh.Lower.Ant			R.Thigh.Lower.Post			R.Thigh.Upper.Ant			R.Knee.Lat			R.Knee.Med			R.Shank.Upper.Post			R.Shank.Lower.Ant			R.Shank.Lower.Post			R.Shank.Upper.Ant			R.Ankle.Lat			R.Ankle.Med			R.Heel.Upper			R.Heel.Med			R.Heel.Lat			R.Toe.Lat			R.Toe.Med			R.Toe.Tip			L.Thigh.Upper.Post			L.Thigh.Lower.Ant			L.Thigh.Lower.Post			L.Thigh.Upper.Ant			L.Knee.Lat			L.Knee.Med			L.Shank.Upper.Post			L.Shank.Lower.Ant			L.Shank.Lower.Post			L.Shank.Upper.Ant			L.Ankle.Lat			L.Ankle.Med			L.Heel.Upper			L.Heel.Med			L.Heel.Lat			L.Toe.Lat			L.Toe.Med			L.Toe.Tip			Cervical.Spine			Back			
		X1	Y1	Z1	X2	Y2	Z2	X3	Y3	Z3	X4	Y4	Z4	X5	Y5	Z5	X6	Y6	Z6	X7	Y7	Z7	X8	Y8	Z8	X9	Y9	Z9	X10	Y10	Z10	X11	Y11	Z11	X12	Y12	Z12	X13	Y13	Z13	X14	Y14	Z14	X15	Y15	Z15	X16	Y16	Z16	X17	Y17	Z17	X18	Y18	Z18	X19	Y19	Z19	X20	Y20	Z20	X21	Y21	Z21	X22	Y22	Z22	X23	Y23	Z23	X24	Y24	Z24	X25	Y25	Z25	X26	Y26	Z26	X27	Y27	Z27	X28	Y28	Z28	X29	Y29	Z29	X30	Y30	Z30	X31	Y31	Z31	X32	Y32	Z32	X33	Y33	Z33	X34	Y34	Z34	X35	Y35	Z35	X36	Y36	Z36	X37	Y37	Z37	X38	Y38	Z38	X39	Y39	Z39	X40	Y40	Z40	X41	Y41	Z41	X42	Y42	Z42	X43	Y43	Z43	X44	Y44	Z44	X45	Y45	Z45	X46	Y46	Z46	X47	Y47	Z47	X48	Y48	Z48	X49	Y49	Z49	X50	Y50	Z50	X51	Y51	Z51	

96	0.39583	-812.13	1278.6	265.31	-924.84	1536.2	436.66	-952.1	1544.7	105.83	-928.51	1858.1	259.09	-869.66	1034.8	430.17	-869.59	1015.5	164.63	-1104.1	1080.5	339.56	-1109.3	1079	236.92	-942.38	995.56	518.68	-984.24	969.55	91.629	-953.67	1140.5	491.15	-973.88	1100.3	86.99	-1122.6	1044.5	287.68	-840.58	698.01	503.64	-747.82	658.28	478.91	-804.25	617.96	482.09	-782.14	740.98	497.53	-762.6	567.74	476.84	-750.16	571.43	332.16	-802.77	405.06	490.55	-731.01	330.13	452.65	-799.17	335.46	477.63	-739.07	400.8	471.44	-773.77	132.97	438.26	-733.26	147.28	350.53	-828.72	91.525	371.24	-804.29	66.922	343.74	-817.87	61.539	406.62	-640.62	78.925	487.09	-594.96	97.097	371.38	-545.85	127.12	433.86	-1068.8	706.01	116.01	-997.17	620.8	110.01	-1074.2	615.86	130.71	-1001.2	715.41	94.3	-1044.7	520.84	118.41	-1014.2	514.72	259.73	-1131.9	397.85	101.69	-1092.4	295.84	122.54	-1149.8	321.59	104.21	-1073.5	370.41	114.89	-1216.3	114.89	141.02	-1185.8	121.12	237.88	-1287.2	83.384	187.84	-1278.3	57.054	219.59	-1280.6	58.701	157.53	-1073.9	38.88	114.63	-1045.8	44.234	236.7	-984.64	53.936	184.02	-1022.3	1596.8	273.55	-1116	1293.4	299.43
97	0.4	-807.51	1277.4	265.32	-918.55	1534.7	436.92	-946.09	1543.3	106.12	-922.72	1856.9	259.52	-863.29	1033.4	430.37	-863.82	1013.9	164.71	-1097.9	1079.4	340.12	-1103.2	1077.8	237.51	-935.81	994.22	518.92	-978.87	968.26	91.833	-947.17	1139.2	491.43	-968.05	1098.7	87.168	-1116.4	1043.3	288.28	-834.89	696.32	503.35	-742.21	656.59	478.33	-798.65	616.29	481.57	-776.43	739.27	497.13	-756.24	566.73	476.18	-744.8	569.92	331.25	-792.78	403.38	490.82	-719.51	329.87	452.91	-787.68	333.79	478.23	-729.1	400.45	471.39	-757.45	131.33	439.49	-717.66	146.3	351.54	-811.8	88.209	372.88	-786.85	64.093	345.38	-800	58.639	408.34	-622.67	80.71	487.91	-578.04	99.632	371.96	-529.35	131.1	434.12	-1064.6	705.58	116.17	-993.38	619.94	110.23	-1070.4	615.43	130.89	-997	714.61	94.524	-1041.6	520.25	118.53	-1011.3	513.92	260	-1129.7	397.84	101.9	-1090.9	295.57	122.61	-1148.1	321.71	104.37	-1071.5	370	115	-1216.1	115.29	141.24	-1185.4	121.39	238.08	-1287	83.958	188.11	-1278.1	57.559	219.84	-1280.5	59.289	157.77	-1073.8	38.836	114.66	-1045.7	44.165	236.73	-984.55	53.731	184.02	-1016.3	1595.5	273.87	-1109.8	1291.9	299.78
98	0.40417	-803.32	1276.3	265.32	-912.22	1533.3	437.2	-940.09	1541.9	106.43	-916.91	1855.6	259.97	-856.89	1032	430.58	-858.02	1012.2	164.79	-1091.6	1078.2	340.71	-1097	1076.6	238.14	-929.21	992.82	519.17	-973.47	966.99	92.06	-940.64	1137.8	491.73	-962.18	1097.1	87.39	-1110.2	1042.1	288.91	-829.16	694.59	503.11	-736.58	654.87	477.79	-793.01	614.59	481.11	-770.7	737.52	496.77	-749.84	565.7	475.56	-739.43	568.37	330.37	-782.89	401.76	491.1	-708.23	329.63	453.17	-776.38	332.22	478.81	-719.26	400.12	471.35	-741.53	129.87	440.68	-702.46	145.46	352.52	-795.3	85.157	374.49	-769.87	61.518	346.97	-782.59	56.001	410.03	-605.23	82.542	488.62	-561.65	102.17	372.44	-513.37	135.02	434.26	-1060.3	705.12	116.33	-989.48	619.06	110.45	-1066.6	614.96	131.08	-992.74	713.8	94.747	-1038.4	519.64	118.65	-1008.1	513.1	260.27	-1127.5	397.83	102.11	-1089.3	295.3	122.69	-1146.4	321.84	104.53	-1069.5	369.59	115.11	-1215.8	115.74	141.45	-1184.9	121.69	238.27	-1286.9	84.609	188.39	-1278	58.138	220.08	-1280.4	59.944	158.01	-1073.8	38.789	114.69	-1045.6	44.099	236.75	-984.45	53.523	184.03	-1010.2	1594.2	274.23	-1103.5	1290.4	300.16
99	0.40833	-799.61	1275.3	265.31	-905.87	1531.8	437.5	-934.1	1540.5	106.77	-911.09	1854.3	260.44	-850.44	1030.5	430.77	-852.2	1010.6	164.87	-1085.3	1076.9	341.34	-1090.8	1075.3	238.8	-922.56	991.37	519.42	-968.06	965.71	92.31	-934.08	1136.3	492.05	-956.27	1095.5	87.658	-1104.1	1040.9	289.59	-823.38	692.84	502.94	-730.89	653.14	477.28	-787.31	612.86	480.71	-764.93	735.75	496.44	-743.39	564.64	474.99	-734.05	566.78	329.53	-773.13	400.21	491.4	-697.17	329.41	453.41	-765.27	330.72	479.39	-709.58	399.78	471.31	-726.04	128.57	441.81	-687.69	144.73	353.43	-779.26	82.357	376.05	-753.39	59.18	348.49	-765.67	53.606	411.65	-588.36	84.381	489.24	-545.82	104.67	372.81	-497.93	138.82	434.3	-1055.9	704.61	116.5	-985.47	618.16	110.67	-1062.6	614.45	131.27	-988.38	712.96	94.968	-1035.1	519	118.78	-1004.8	512.27	260.53	-1125.1	397.84	102.32	-1087.6	295.03	122.76	-1144.5	322	104.69	-1067.3	369.18	115.23	-1215.4	116.24	141.66	-1184.4	122.05	238.46	-1286.7	85.346	188.67	-1277.8	58.8	220.33	-1280.2	60.672	158.26	-1073.8	38.739	114.72	-1045.5	44.035	236.78	-984.35	53.312	184.03	-1004.1	1592.8	274.62	-1097.3	1288.9	300.58
100	0.4125	-796.4	1274.5	265.3	-899.5	1530.3	437.82	-928.12	1539	107.13	-905.26	1852.9	260.93	-843.94	1029	430.96	-846.34	1008.9	164.95	-1079	1075.6	342.01	-1084.7	1074.1	239.51	-915.86	989.85	519.66	-962.61	964.45	92.583	-927.48	1134.9	492.39	-950.31	1094	87.973	-1097.9	1039.6	290.3	-817.53	691.08	502.82	-725.14	651.41	476.81	-781.53	611.13	480.37	-759.09	733.99	496.14	-736.9	563.57	474.47	-728.64	565.17	328.73	-763.51	398.72	491.7	-686.36	329.18	453.65	-754.39	329.31	479.94	-700.05	399.42	471.29	-711.02	127.4	442.88	-673.38	144.1	354.28	-763.72	79.793	377.54	-737.46	57.061	349.93	-749.31	51.437	413.19	-572.07	86.184	489.75	-530.59	107.09	373.07	-483.06	142.47	434.24	-1051.4	704.07	116.67	-981.34	617.24	110.89	-1058.5	613.9	131.47	-983.93	712.11	95.188	-1031.7	518.34	118.89	-1001.3	511.42	260.79	-1122.6	397.86	102.53	-1085.9	294.77	122.83	-1142.6	322.18	104.84	-1065	368.76	115.34	-1215.1	116.79	141.86	-1183.9	122.45	238.62	-1286.5	86.177	188.94	-1277.6	59.552	220.58	-1280.1	61.482	158.5	-1073.8	38.687	114.76	-1045.4	43.974	236.8	-984.23	53.097	184.03	-998.06	1591.4	275.05	-1091	1287.3	301.04
101	0.41667	-793.74	1273.8	265.28	-893.1	1528.8	438.17	-922.15	1537.6	107.51	-899.42	1851.6	261.45	-837.41	1027.4	431.14	-840.45	1007.3	165.03	-1072.6	1074.3	342.72	-1078.5	1072.7	240.24	-909.11	988.29	519.91	-957.12	963.2	92.881	-920.86	1133.4	492.75	-944.32	1092.4	88.335	-1091.6	1038.3	291.05	-811.59	689.32	502.77	-719.31	649.71	476.36	-775.66	609.4	480.1	-753.18	732.24	495.88	-730.35	562.48	474	-723.17	563.55	327.99	-754.05	397.28	492	-675.81	328.94	453.87	-743.75	327.95	480.46	-690.68	399.03	471.28	-696.51	126.34	443.87	-659.58	143.53	355.06	-748.74	77.45	378.96	-722.13	55.141	351.27	-733.54	49.472	414.64	-556.41	87.908	490.15	-515.98	109.4	373.22	-468.76	145.9	434.08	-1046.8	703.49	116.85	-977.08	616.31	111.09	-1054.2	613.33	131.67	-979.4	711.25	95.407	-1028.1	517.67	119.01	-997.66	510.55	261.05	-1120	397.89	102.72	-1084.1	294.53	122.89	-1140.6	322.38	104.99	-1062.7	368.34	115.44	-1214.6	117.41	142.05	-1183.4	122.92	238.77	-1286.2	87.111	189.2	-1277.4	60.404	220.82	-1279.9	62.38	158.74	-1073.8	38.633	114.8	-1045.2	43.915	236.82	-984.11	52.88	184.03	-991.99	1590	275.51	-1084.7	1285.7	301.53
102	0.42083	-786.64	1271.6	265.31	-886.69	1527.3	438.53	-916.19	1536.1	107.92	-893.57	1850.2	261.98	-830.82	1025.9	431.31	-834.52	1005.8	165.1	-1066.2	1073	343.47	-1072.3	1071.4	241.02	-902.32	986.68	520.15	-951.6	961.97	93.202	-914.2	1131.8	493.14	-938.28	1090.9	88.741	-1085.4	1037	291.83	-805.55	687.59	502.76	-713.38	648.04	475.95	-769.68	607.7	479.88	-747.17	730.51	495.66	-723.75	561.38	473.58	-717.63	561.94	327.3	-744.75	395.88	492.29	-665.53	328.66	454.08	-733.37	326.64	480.95	-681.5	398.6	471.28	-682.54	125.37	444.76	-646.31	143.01	355.75	-734.34	75.311	380.27	-707.43	53.397	352.5	-718.41	47.69	415.98	-541.41	89.509	490.44	-502	111.54	373.26	-455.07	149.09	433.82	-1042.1	702.89	117.04	-972.71	615.38	111.29	-1049.9	612.72	131.88	-974.78	710.38	95.624	-1024.4	516.97	119.11	-993.83	509.67	261.28	-1117.3	397.95	102.91	-1082.2	294.3	122.93	-1138.5	322.62	105.13	-1060.2	367.92	115.52	-1214.2	118.09	142.23	-1182.7	123.45	238.9	-1286	88.158	189.45	-1277.2	61.366	221.05	-1279.8	63.373	158.97	-1073.7	38.575	114.84	-1045.1	43.859	236.84	-983.99	52.661	184.04	-985.9	1588.5	276.01	-1078.4	1284.1	302.06
103	0.425	-776.04	1268.4	265.37	-880.25	1525.7	438.92	-910.23	1534.6	108.36	-887.7	1848.8	262.54	-824.19	1024.3	431.47	-828.56	1004.2	165.17	-1059.8	1071.6	344.25	-1066.1	1070	241.82	-895.48	985.04	520.4	-946.03	960.75	93.546	-907.51	1130.3	493.54	-932.22	1089.4	89.191	-1079.1	1035.6	292.66	-799.39	685.88	502.8	-707.33	646.41	475.55	-763.57	606.04	479.72	-741.05	728.83	495.46	-717.08	560.26	473.22	-712.02	560.34	326.69	-735.64	394.52	492.57	-655.53	328.33	454.26	-723.26	325.37	481.4	-672.5	398.11	471.28	-669.14	124.47	445.57	-633.58	142.5	356.36	-720.57	73.358	381.48	-693.39	51.808	353.61	-703.96	46.07	417.2	-527.1	90.948	490.61	-488.68	113.49	373.2	-442	151.97	433.47	-1037.3	702.25	117.24	-968.2	614.43	111.47	-1045.4	612.08	132.09	-970.07	709.52	95.837	-1020.5	516.26	119.2	-989.81	508.76	261.5	-1114.4	398.03	103.08	-1080.1	294.08	122.97	-1136.2	322.88	105.26	-1057.5	367.51	115.59	-1213.7	118.83	142.39	-1182.1	124.04	239	-1285.7	89.328	189.69	-1276.9	62.447	221.27	-1279.6	64.47	159.2	-1073.7	38.515	114.88	-1045	43.806	236.86	-983.85	52.441	184.04	-979.82	1587.1	276.55	-1072.1	1282.5	302.64
104	0.42917	-764.8	1265.1	265.48	-873.8	1524.2	439.34	-904.27	1533.2	108.83	-881.83	1847.4	263.12	-817.5	1022.8	431.62	-822.55	1002.7	165.24	-1053.4	1070.3	345.07	-1059.9	1068.7	242.66	-888.58	983.37	520.65	-940.41	959.55	93.913	-900.79	1128.7	493.97	-926.14	1087.9	89.68	-1072.7	1034.3	293.51	-793.11	684.22	502.89	-701.17	644.84	475.18	-757.34	604.42	479.61	-734.83	727.19	495.29	-710.36	559.12	472.91	-706.31	558.77	326.15	-726.72	393.17	492.84	-645.82	327.93	454.43	-713.45	324.12	481.8	-663.69	397.56	471.28	-656.35	123.61	446.27	-621.44	141.98	356.87	-707.46	71.575	382.56	-680.06	50.352	354.59	-690.23	44.591	418.29	-513.5	92.185	490.68	-476.03	115.21	373.04	-429.55	154.5	433.04	-1032.4	701.59	117.45	-963.57	613.47	111.64	-1040.7	611.41	132.29	-965.27	708.65	96.047	-1016.4	515.53	119.28	-985.59	507.84	261.68	-1111.3	398.13	103.23	-1078	293.88	122.98	-1133.8	323.18	105.36	-1054.8	367.1	115.64	-1213.1	119.66	142.53	-1181.3	124.71	239.08	-1285.5	90.629	189.91	-1276.6	63.658	221.48	-1279.3	65.679	159.41	-1073.7	38.452	114.92	-1044.8	43.756	236.87	-983.72	52.219	184.05	-973.73	1585.6	277.13	-1065.8	1280.9	303.24
